<svg width="1086" height="262" viewBox="0 0 1086 262" fill="none" xmlns="http://www.w3.org/2000/svg">
<g clip-path="url(#clip0_405_7547)">
<path d="M377.37 260.84C368.23 259.94 361.53 255.47 356.83 248.13C354.2 244.02 352.88 239.49 352.32 234.76C351.59 228.56 351.85 222.4 353.59 216.33C355.28 210.43 358.67 205.6 363.63 201.73C366.94 199.14 370.78 197.62 374.96 196.88C381.17 195.78 387.39 195.75 393.46 197.43C402.82 200.01 408.69 206.12 411.85 214.68C414.02 220.56 414.35 226.69 413.87 232.86C413.6 236.38 412.97 239.86 411.62 243.17C407.69 252.88 400.65 259.11 389.58 260.8C389.21 260.86 388.86 261.05 388.5 261.18H387.42C386.34 260.57 385.26 260.75 384.18 261.18H381.66C380.22 261.07 378.78 260.95 377.35 260.84H377.37ZM400.43 228.42C400.54 225.54 400.16 222.44 399.27 219.41C397.57 213.64 393.13 207.63 384.35 207.1C379.11 206.78 374.53 208.16 370.9 211.91C369.05 213.83 367.77 216.06 366.93 218.52C365.28 223.37 365.14 228.34 365.69 233.36C365.99 236.09 366.67 238.73 367.93 241.22C369.53 244.39 371.84 246.93 375.14 248.58C383.63 252.82 393.87 249.55 397.94 241.29C399.91 237.29 400.5 233.04 400.42 228.41L400.43 228.42Z" fill="#004F7C"/>
<path d="M707.44 261.18C706.61 260.95 705.8 260.65 704.96 260.5C701.99 259.98 699.15 259.1 696.52 257.59C691.49 254.7 688.48 250.3 687.35 244.69C686.78 241.83 686.35 238.89 686.33 235.98C686.22 222.69 686.28 210.4 686.28 197.1C686.28 196.7 686.28 196.29 686.28 195.79H700.08C700.1 196.39 700.14 197.02 700.14 197.65C700.14 210.4 700.14 222.16 700.14 234.91C700.14 237.31 700.27 239.69 700.88 242.03C701.89 245.86 704.26 248.27 708.15 249.15C710.94 249.78 713.73 249.77 716.52 249.12C721.02 248.08 723.28 245 723.93 240.67C724.3 238.2 724.41 235.67 724.42 233.16C724.47 221.07 724.44 209.97 724.44 197.88V195.81H738.21C738.24 196.13 738.3 196.41 738.3 196.7C738.29 210.11 738.3 222.52 738.24 235.93C738.22 239.71 737.78 243.45 736.56 247.07C734.14 254.27 728.9 258.27 721.75 260.06C720.36 260.41 718.92 260.56 717.51 260.83C717.25 260.88 717.03 261.07 716.78 261.19H715.34C714.21 260.72 709.96 260.72 708.87 261.19H707.43L707.44 261.18Z" fill="#004F7C"/>
<path d="M907.73 261.18C906.84 260.94 905.97 260.65 905.07 260.48C900.58 259.63 896.46 258.02 893.08 254.8C889.68 251.55 887.95 247.46 887.28 242.93C886.86 240.1 886.62 237.22 886.6 234.35C886.53 221.84 886.57 210.32 886.57 197.81C886.57 197.16 886.57 196.52 886.57 195.79H900.37C900.39 196.41 900.43 197.04 900.43 197.67C900.43 210.36 900.41 222.06 900.45 234.75C900.45 236.84 900.6 238.95 900.96 241C901.83 246.02 904.8 248.81 909.89 249.35C911.83 249.56 913.84 249.53 915.78 249.3C920.47 248.73 923.44 245.76 924.22 240.85C924.58 238.56 924.71 236.21 924.72 233.88C924.77 221.55 924.74 210.21 924.74 197.88C924.74 197.23 924.74 196.58 924.74 195.82H938.6C938.6 196.45 938.6 197.04 938.6 197.62C938.6 210.19 938.66 221.77 938.56 234.34C938.53 237.61 938.2 240.92 937.6 244.14C935.97 252.84 930.5 257.96 922.04 260.07C920.65 260.42 919.21 260.57 917.8 260.84C917.54 260.89 917.32 261.07 917.07 261.2H915.63C914.5 260.73 910.25 260.73 909.16 261.2H907.72L907.73 261.18Z" fill="#004F7C"/>
<path d="M633.86 260.83C624.77 259.67 618.09 255.14 613.72 247.44C611.51 243.55 610.36 239.32 609.87 234.95C609.16 228.67 609.4 222.42 611.18 216.3C612.54 211.62 614.84 207.44 618.37 203.93C623.17 199.16 629.04 196.62 635.9 196.22C641.21 195.9 646.46 196.27 651.42 198.29C660.16 201.85 665.02 208.32 666.48 217.24C666.51 217.41 666.48 217.58 666.48 217.75C665.21 218.13 657.14 218.25 652.99 217.95C652.73 217.25 652.45 216.51 652.17 215.77C650.01 210.16 646.03 207.48 639.79 207.28C633.53 207.08 629.14 209.8 626.31 215.03C624.6 218.2 623.89 221.63 623.58 225.15C623.17 229.88 623.3 234.59 624.83 239.16C625.34 240.68 626.03 242.19 626.92 243.52C631.21 249.97 638.34 251.13 644.54 249.05C647.38 248.1 649.46 246.2 650.79 243.63C651.64 241.99 652.28 240.25 653.06 238.44H666.32C666.16 239.29 666.04 240.07 665.86 240.83C664.85 244.98 663.03 248.75 660.23 252.08C656.27 256.8 651.17 259.68 644.98 260.8C644.61 260.87 644.26 261.07 643.9 261.2H642.82C641.98 260.61 641.14 260.76 640.3 261.2H638.14C636.71 261.08 635.28 260.96 633.84 260.84L633.86 260.83Z" fill="#004F7C"/>
<path d="M1006.1 230.33C1006.28 230.52 1006.31 230.58 1006.36 230.6C1011.67 232.89 1013.56 237.3 1013.78 242.7C1013.88 245.27 1013.81 247.85 1013.86 250.42C1013.89 251.85 1013.99 253.29 1014.08 254.72C1014.19 256.52 1014.8 258.07 1016.2 259.32C1016.6 259.68 1016.65 260.42 1016.93 261.18H1001.76C1000.71 258.17 1000.35 255.1 1000.27 251.99C1000.2 249.6 1000.27 247.2 1000.13 244.81C1000.04 243.33 999.77 241.84 999.41 240.4C998.91 238.37 997.5 237.13 995.51 236.55C994.77 236.34 993.99 236.11 993.23 236.11C987.96 236.07 982.7 236.09 977.17 236.09C977.13 244.37 977.17 252.71 977.14 261.17H963.96V196.7C964.39 196.65 964.84 196.56 965.29 196.56C975.3 196.56 985.3 196.5 995.31 196.59C997.75 196.61 1000.25 196.83 1002.6 197.42C1009.5 199.15 1013.46 203.94 1015.19 210.6C1016.29 214.84 1015.69 219.02 1013.87 223.04C1012.47 226.12 1010.29 228.38 1007.2 229.77C1006.88 229.91 1006.58 230.08 1006.11 230.32L1006.1 230.33ZM977.18 225.18C977.65 225.21 977.94 225.24 978.23 225.24C982.84 225.24 987.45 225.27 992.06 225.23C993.31 225.22 994.57 225.09 995.81 224.88C999.22 224.3 1001.42 222.35 1001.83 219.14C1002.07 217.28 1001.95 215.31 1001.61 213.46C1001.05 210.44 998.98 208.72 996 208.15C994.77 207.92 993.51 207.8 992.26 207.79C987.71 207.75 983.16 207.77 978.61 207.78C978.15 207.78 977.69 207.85 977.17 207.89V225.18H977.18Z" fill="#004F7C"/>
<path d="M471.52 261.18C470.61 258.47 470.16 255.7 470.06 252.88C469.94 249.53 469.83 246.19 469.71 242.84C469.71 242.6 469.67 242.36 469.63 242.13C468.99 238.34 467.19 236.58 463.35 236.13C461.93 235.96 460.48 235.94 459.05 235.93C455.1 235.9 451.15 235.93 447.01 235.93V261.18H433.95C433.57 259.83 433.39 202.8 433.76 196.7C434.19 196.66 434.64 196.58 435.1 196.58C445.05 196.58 454.99 196.54 464.94 196.61C467.14 196.63 469.37 196.87 471.54 197.28C478.47 198.6 483.98 204.4 485.15 211.37C485.85 215.52 485.31 219.46 483.54 223.27C482.17 226.22 480.05 228.39 477.09 229.73C476.76 229.88 476.45 230.05 476.14 230.22C476.1 230.24 476.09 230.32 476.01 230.52C476.21 230.64 476.43 230.8 476.66 230.91C480.87 232.88 482.98 236.32 483.33 240.82C483.6 244.34 483.56 247.87 483.7 251.4C483.76 252.89 483.86 254.38 484.03 255.87C484.18 257.16 484.76 258.3 485.79 259.1C486.52 259.67 486.69 260.3 486.41 261.22H471.54L471.52 261.18ZM447.06 225.17C447.44 225.2 447.73 225.23 448.01 225.23C452.68 225.23 457.35 225.25 462.02 225.22C463.21 225.21 464.41 225.08 465.59 224.87C469.37 224.22 471.53 221.87 471.76 218.04C471.85 216.62 471.74 215.16 471.48 213.77C470.89 210.6 468.88 208.73 465.74 208.13C464.51 207.9 463.24 207.79 461.99 207.78C457.56 207.74 453.13 207.76 448.69 207.77C448.17 207.77 447.64 207.82 447.05 207.85V225.17H447.06Z" fill="#004F7C"/>
<path d="M1050.26 208.1V221.73C1052.32 221.78 1054.39 221.75 1056.45 221.75C1058.55 221.75 1060.64 221.75 1062.74 221.75H1081.55V233.05H1050.25V249.6C1056.2 249.71 1062.16 249.64 1068.13 249.65C1074.04 249.66 1079.96 249.65 1085.95 249.65V261.19H1037V196.66H1084.35V208.1H1050.26Z" fill="#004F7C"/>
<path d="M318.81 196.62H332.26V261.19H318.94V232.74C317.53 232.36 296.15 232.27 293.78 232.61V261.16H280.46V196.67H293.75V221.12H318.82V196.62H318.81Z" fill="#004F7C"/>
<path d="M523.43 207.89H504.03V196.69C505.29 196.3 551.25 196.12 556.29 196.5V207.83H537.47C537.29 208.02 537.24 208.06 537.2 208.11C537.16 208.15 537.11 208.2 537.09 208.25C537.07 208.3 537.07 208.37 537.06 208.43C537.05 208.61 537.03 208.79 537.03 208.97C537.02 226.21 537.01 243.45 536.99 260.69C536.99 260.75 536.97 260.8 536.95 260.86C535.71 261.2 526.55 261.32 523.41 261.01V207.9L523.43 207.89Z" fill="#004F7C"/>
<path d="M846.32 208.07V261.19H832.67V208.12H813.36V196.69H865.62V208.03C863.54 208.13 861.41 208.06 859.28 208.07C857.18 208.08 855.09 208.07 852.99 208.07H846.31H846.32Z" fill="#004F7C"/>
<path d="M806.13 249.67V261.18H760.37V196.7H773.84C773.86 202.5 773.84 208.34 773.85 214.18C773.85 220.05 773.85 225.92 773.85 231.79V249.65C784.62 249.69 795.31 249.65 806.13 249.67Z" fill="#004F7C"/>
<path d="M575.31 196.64H588.62V261.19H575.31V196.64Z" fill="#004F7C"/>
<path d="M280.57 17.2C281.47 13.16 283.34 9.64 286.22 6.65C289.77 2.98 294.1 0.879995 299.11 0.119995C299.23 0.119995 299.34 0.149995 299.46 0.149995C331.59 0.149995 363.72 0.149995 395.84 0.139995C403.35 0.139995 410.86 0.129995 418.36 0.119995C423.48 0.879995 427.89 3.04 431.43 6.84C435.17 10.87 437.29 15.58 437.29 21.15C437.29 50.27 437.24 79.39 437.32 108.5C437.34 116.34 432.07 124.73 424.12 128.02C421.29 129.19 418.38 129.74 415.3 129.74C377.37 129.71 339.43 129.79 301.5 129.68C292.45 129.65 286.02 124.99 282.04 116.97C281.28 115.43 280.96 113.67 280.44 112.01M410.25 109.5V18.02H308.34C307.96 20.69 308.09 108.33 308.46 109.51H410.25V109.5Z" fill="#004F7C"/>
<path d="M601.29 79.66C601.29 76.58 600.19 73.88 598.26 71.5C595.76 68.41 592.44 66.51 588.81 65.16C586.11 64.15 583.28 62.49 580.43 61.65C580.43 60.96 580.43 62.12 580.43 61.45C582.56 61.09 584.09 60.68 586.54 59.39C591.75 56.64 596.13 54.09 598.78 48.97C600.42 45.8 601.42 42.47 601.34 38.79C601.19 31.8 601.27 24.81 601.3 17.83C601.33 11.47 598.45 6.86 593.04 3.69C589.62 1.69 585.87 0.740005 582.01 0.130005C581.89 0.130005 581.78 0.160005 581.66 0.160005C541.47 0.160005 501.28 0.160005 461.08 0.160005C460.27 0.160005 459.45 0.210005 458.64 0.240005C458.64 5.66001 458.62 11.07 458.62 16.49C458.62 53.47 458.62 90.45 458.62 127.43C458.62 128.1 458.65 128.77 458.66 129.52H505.2C530.61 129.52 556.01 129.52 581.42 129.52C584.31 129.52 587.1 129 589.72 127.81C597.48 124.3 600.92 117.78 601.2 109.72C601.55 99.72 601.3 89.69 601.28 79.67L601.29 79.66ZM485.96 17.93H566.78C568.32 17.93 569.82 18.03 571.16 18.84C573.49 20.24 574.69 22.32 574.7 25.05C574.7 30.52 574.7 35.99 574.7 41.47C574.7 42.63 574.73 43.8 574.7 44.96C574.59 48.87 571.73 51.75 567.83 51.89C567.31 51.91 566.78 51.89 566.26 51.89C540.22 51.89 514.19 51.89 488.15 51.89H485.97V17.93H485.96ZM574.68 102.77C574.65 106.5 571.73 109.35 568.02 109.54C567.56 109.56 567.09 109.55 566.62 109.55C540.41 109.55 514.19 109.55 487.98 109.55H485.98C485.73 96.54 485.74 83.71 485.98 70.69H487.96C498.79 70.69 509.63 70.67 520.46 70.69C535.89 70.72 551.33 70.76 566.76 70.83C567.85 70.83 568.99 70.96 570.02 71.28C572.74 72.13 574.65 74.69 574.67 77.61C574.72 85.99 574.73 94.38 574.67 102.76L574.68 102.77Z" fill="#004F7C"/>
<path d="M640.05 0.120016C647.44 0.120016 654.83 0.130016 662.22 0.140016C694.46 0.140016 726.71 0.140016 758.95 0.150016C759.07 0.150016 759.18 0.130016 759.3 0.120016C764.42 0.880016 768.84 3.04002 772.37 6.84002C776.11 10.87 778.23 15.58 778.23 21.16C778.23 50.28 778.19 79.4 778.26 108.52C778.28 116.22 773.24 124.52 765.21 127.97C762.35 129.2 759.37 129.75 756.23 129.75C718.29 129.72 680.35 129.73 642.41 129.73C633.86 129.73 626.1 124.19 622.88 116.79C621.66 113.98 621.08 111.08 621.09 107.99C621.13 79.04 621.15 50.1 621.09 21.15C621.07 13.42 626.19 5.13002 634.05 1.86002C635.96 1.07002 638.04 0.690016 640.04 0.110016L640.05 0.120016ZM648.62 17.97V109.45H750.73V17.97H648.62Z" fill="#004F7C"/>
<path d="M984.45 0.110006C992.2 0.110006 999.94 0.130006 1007.69 0.140006C1008.45 0.140006 1009.2 0.170006 1009.96 0.180006C1016.54 11.41 1023.12 22.64 1029.71 33.86C1039.38 50.35 1049.06 66.83 1058.74 83.31C1066.39 96.34 1074.06 109.35 1081.71 122.38C1082.83 124.28 1083.96 126.18 1085.06 128.09C1085.28 128.47 1085.41 128.89 1085.65 129.43H1056.76C1053.83 124.69 1050.89 119.96 1047.97 115.22C1045.25 110.82 1042.52 106.43 1039.85 102C1039.34 101.15 1038.77 100.82 1037.76 100.82C1010.49 100.85 983.23 100.85 955.96 100.82C954.92 100.82 954.4 101.21 953.91 102.05C949.67 109.33 945.4 116.59 941.14 123.86C940.05 125.71 938.96 127.57 937.89 129.4H907.97C909.18 127.32 910.27 125.43 911.38 123.55C922.23 105.19 933.08 86.83 943.94 68.48C953.65 52.08 963.36 35.68 973.07 19.28C976.86 12.88 980.66 6.50001 984.45 0.100006V0.110006ZM1027.31 80.12C1017.25 62.2 1007.3 44.47 997.22 26.52C987.48 44.54 977.89 62.27 968.24 80.12H1027.31Z" fill="#004F7C"/>
<path d="M919.42 0.110016C927.81 0.120016 936.2 0.130016 944.59 0.150016C946.1 0.150016 947.62 0.170016 949.14 0.180016C947.95 1.51002 946.79 2.88002 945.56 4.18002C942 7.94002 938.4 11.66 934.84 15.42C929.37 21.21 923.93 27.03 918.46 32.82C916.07 35.36 913.63 37.86 911.24 40.4C906.61 45.3 902 50.22 897.37 55.13C895.14 57.5 892.89 59.86 890.64 62.21C888.15 64.82 885.67 67.44 883.15 70.02C882.57 70.62 882.4 71.26 882.4 72.06C882.43 75.44 882.41 78.82 882.41 82.19V129.41H854.44V127.44C854.44 109.15 854.43 90.87 854.47 72.58C854.47 71.38 854.11 70.55 853.28 69.69C848.33 64.53 843.44 59.3 838.53 54.11C835.93 51.37 833.29 48.66 830.69 45.91C825.81 40.76 820.95 35.6 816.07 30.45C813.51 27.75 810.91 25.08 808.35 22.38C803.39 17.15 798.45 11.89 793.49 6.66002C791.53 4.59002 789.51 2.57002 787.52 0.530016C788.1 0.400016 788.69 0.170016 789.27 0.170016C797.82 0.150016 806.36 0.160016 814.91 0.150016C816.89 0.150016 818.86 0.130016 820.84 0.120016C824.23 3.78002 827.62 7.45002 831.02 11.11C833.47 13.75 835.94 16.38 838.39 19.02C841.98 22.89 845.57 26.78 849.16 30.65C851.61 33.29 854.08 35.91 856.53 38.55C860.08 42.38 863.63 46.22 867.17 50.07C867.68 50.63 868.14 51.23 868.75 51.96C869.69 50.94 870.41 50.13 871.16 49.35C873.55 46.89 875.95 44.43 878.36 41.99C882.56 37.72 886.78 33.46 890.98 29.18C895.95 24.11 900.9 19.03 905.87 13.96C910.38 9.34002 914.9 4.73002 919.41 0.120016L919.42 0.110016Z" fill="#004F7C"/>
<path d="M19.6425 235.472L8.23438 235.679L8.55872 253.546L19.9668 253.339L19.6425 235.472Z" fill="#004F7C"/>
<path d="M20.5002 242.72C40.7602 241.85 71.5602 237.52 103.74 220.21C130.85 205.62 147.51 187.96 159.18 175.39C178.88 154.15 188.55 136.44 204.97 106.34C204.97 106.34 220.09 82.39 227.53 35.5C230.32 17.91 222.41 18.26 207.76 20.88C183.9 25.14 155.27 32.88 134.24 44.77C62.9802 85.04 26.2802 163.43 20.5002 242.72L7.66016 241.97C14.0502 162.17 48.5602 84.73 117.44 40.21C137.46 27.27 154.2 21.17 177.18 15.15C202.26 8.58 247.39 -6.37 239.97 37.8C236.07 61.02 226.98 86.45 217.96 108.2C197.63 157.19 151.91 211.31 103.51 234.43C79.8402 245.74 54.1502 248.92 29.3502 256.77C29.0902 256.8 28.9002 256.77 28.7602 256.69C28.3902 256.48 28.2602 256.04 28.2402 255.96C28.0402 255.32 25.3302 250.7 20.5002 242.72Z" fill="#4DAF4E"/>
<path d="M237.38 154.43C230.34 154.05 223.33 153.21 216.41 151.94C167.96 142.99 106.48 97.21 87.9598 51.05C82.6798 37.9 79.5598 24.2 78.1698 10.2C74.4498 12.54 70.6598 14.78 66.8398 17C65.8498 17.58 64.8098 17.94 63.7598 18.11C66.6698 41.13 74.6098 63.53 87.8998 82.48C121.29 130.06 178.78 166.41 238.05 169.76C237.87 164.65 237.65 159.54 237.38 154.43Z" fill="#4DAF4E"/>
<path d="M210.12 226.69C210.3 225.41 210.48 224.13 210.65 222.85C210.68 222.56 210.71 222.34 210.73 222.16C210.8 221.48 210.87 220.8 210.94 220.12C211.08 218.68 211.2 217.24 211.3 215.8C211.4 214.41 211.47 213.01 211.53 211.62C195.16 214.12 178.36 213.6 162.1 210.6C115.61 202.01 56.6202 158.08 38.8402 113.8C31.9402 96.59 28.8602 78.41 28.6202 59.85L14.4102 60.11C13.9202 89.66 21.7802 119.75 38.7702 143.96C75.3302 196.07 142.04 234.15 207.01 227.11C208.04 227 209.07 226.85 210.1 226.69H210.12Z" fill="#4DAF4E"/>
<path d="M119.76 112.86C116.72 116.92 102.06 135.92 81.6001 163.15C75.3901 171.42 69.0601 179.59 62.3901 187.52C47.0501 205.77 30.4701 223 13.0601 239.39C14.7501 244.11 16.3301 248.88 17.7301 253.69C39.6701 233.42 60.3601 211.87 79.1101 188.78C107.2 154.19 129.93 124.41 179.27 69.97C193.28 54.51 205.06 42.06 212.83 33.95C159.49 68.15 133.56 94.45 119.76 112.86Z" fill="#4DAF4E"/>
<path d="M0.130052 260.29L5.19308e-05 116.12C-0.0599481 52.22 51.8801 0.18 115.78 0.12L244.82 0L244.95 144.18C245.01 208.08 193.06 260.11 129.17 260.18L0.130052 260.3V260.29ZM230.94 13.9L115.79 14.01C88.6701 14.03 63.1001 24.7 43.7801 44.05C24.4701 63.39 13.8601 88.99 13.8801 116.11L14.0001 246.4L129.15 246.29C156.27 246.27 181.85 235.6 201.16 216.25C220.47 196.91 231.08 171.31 231.06 144.19L230.94 13.9Z" fill="#004F7C"/>
<path d="M1085.15 156.74H280.46V168.74H1085.15V156.74Z" fill="#4DAF4E"/>
</g>
<defs>
<clipPath id="clip0_405_7547">
<rect width="1085.96" height="261.18" fill="white"/>
</clipPath>
</defs>
</svg>
